<svg xmlns="http://www.w3.org/2000/svg" xmlns:xlink="http://www.w3.org/1999/xlink" width="1730" height="392" viewBox="0 0 1730 392">
  <defs>
    <filter id="Rectangle_144" x="0" y="0" width="1730" height="392" filterUnits="userSpaceOnUse">
      <feOffset dy="3" input="SourceAlpha"/>
      <feGaussianBlur stdDeviation="15" result="blur"/>
      <feFlood flood-opacity="0.161"/>
      <feComposite operator="in" in2="blur"/>
      <feComposite in="SourceGraphic"/>
    </filter>
    <filter id="Path_3832" x="90.772" y="15.15" width="350.678" height="323.609" filterUnits="userSpaceOnUse">
      <feOffset dy="3" input="SourceAlpha"/>
      <feGaussianBlur stdDeviation="15" result="blur-2"/>
      <feFlood flood-opacity="0.161"/>
      <feComposite operator="in" in2="blur-2"/>
      <feComposite in="SourceGraphic"/>
    </filter>
    <filter id="Ellipse_14" x="724.062" y="39.52" width="314.466" height="314.466" filterUnits="userSpaceOnUse">
      <feOffset dy="3" input="SourceAlpha"/>
      <feGaussianBlur stdDeviation="15" result="blur-3"/>
      <feFlood flood-opacity="0.161"/>
      <feComposite operator="in" in2="blur-3"/>
      <feComposite in="SourceGraphic"/>
    </filter>
    <filter id="Ellipse_14-2" x="1325.905" y="32.33" width="326.325" height="326.325" filterUnits="userSpaceOnUse">
      <feOffset dy="3" input="SourceAlpha"/>
      <feGaussianBlur stdDeviation="15" result="blur-4"/>
      <feFlood flood-opacity="0.161"/>
      <feComposite operator="in" in2="blur-4"/>
      <feComposite in="SourceGraphic"/>
    </filter>
  </defs>
  <g id="Group_5631" data-name="Group 5631" transform="translate(-95 -201)">
    <g transform="matrix(1, 0, 0, 1, 95, 201)" filter="url(#Rectangle_144)">
      <path id="Rectangle_144-2" data-name="Rectangle 144" d="M96,0H1544a96,96,0,0,1,96,96V302a0,0,0,0,1,0,0H96A96,96,0,0,1,0,206V96A96,96,0,0,1,96,0Z" transform="translate(45 42)" fill="#fff"/>
    </g>
    <g id="Group_5624" data-name="Group 5624" transform="translate(218 280)">
      <g id="Group_249" data-name="Group 249" transform="translate(0 75.045) rotate(-30)">
        <g transform="matrix(0.87, 0.5, -0.5, 0.87, -29.5, -194.91)" filter="url(#Path_3832)">
          <path id="Path_3832-2" data-name="Path 3832" d="M92.477,13.337c58.445,12.949,117.375,53.9,131.624,91.471s-21.581,57.529-80.026,44.58S26.7,95.487,12.451,57.917,34.032.388,92.477,13.337Z" transform="translate(123 162.63) rotate(-30)" fill="#05314e"/>
        </g>
        <g id="Path_3833" data-name="Path 3833" transform="translate(22.307 30.251)" fill="#05314e">
          <path d="M 138.5167846679688 107.5605545043945 C 130.5169525146484 107.5605545043945 121.7212295532227 106.6035537719727 112.3739242553711 104.7161026000977 C 101.2237777709961 102.4646453857422 89.88051605224609 99.01959991455078 78.65923309326172 94.47664642333984 C 67.82030487060547 90.0885009765625 57.55218505859375 84.8665771484375 48.14013671875 78.95595550537109 C 38.7348747253418 73.04959869384766 30.66063690185547 66.75469207763672 24.14173126220703 60.24612426757812 C 17.41177940368652 53.52681350708008 12.64754199981689 46.87826538085938 9.981398582458496 40.48519515991211 C 8.300922393798828 36.45560073852539 7.516255855560303 32.63978958129883 7.649208068847656 29.14371871948242 C 7.777374744415283 25.77369499206543 8.758708000183105 22.68997955322266 10.56592273712158 19.97821807861328 C 11.89882755279541 17.97819519042969 13.69192218780518 16.16790962219238 15.89544677734375 14.59767055511475 C 18.1009693145752 13.02597999572754 20.73999404907227 11.67852783203125 23.73923301696777 10.59274196624756 C 29.88354110717773 8.368361473083496 37.42689895629883 7.240528106689453 46.15982818603516 7.240528106689453 C 54.15963745117188 7.240528106689453 62.95537567138672 8.197527885437012 72.30265808105469 10.08495616912842 C 83.45282745361328 12.3364086151123 94.79608917236328 15.78145694732666 106.0173492431641 20.32440948486328 C 116.8563003540039 24.71255111694336 127.124397277832 29.93448066711426 136.5364532470703 35.84510040283203 C 145.9417114257812 41.75145721435547 154.0159454345703 48.04636001586914 160.5348510742188 54.554931640625 C 167.2648315429688 61.27424240112305 172.0290374755859 67.92279052734375 174.6951904296875 74.31586456298828 C 176.3756561279297 78.345458984375 177.1603240966797 82.16129302978516 177.02734375 85.65734100341797 C 176.8992156982422 89.02735900878906 175.9178771972656 92.11109924316406 174.1106414794922 94.82286071777344 C 172.7777252197266 96.82288360595703 170.9846343994141 98.63314819335938 168.7811431884766 100.2034072875977 C 166.5755920410156 101.7751007080078 163.9365692138672 103.1225280761719 160.9373474121094 104.2083129882812 C 154.7930450439453 106.4326934814453 147.2496795654297 107.5605545043945 138.5167846679688 107.5605545043945 Z" stroke="none"/>
          <path d="M 46.15980529785156 7.740501403808594 C 37.485107421875 7.740501403808594 29.99899291992188 8.858314514160156 23.909423828125 11.06285858154297 C 20.95285034179688 12.13321685791016 18.35418701171875 13.45948028564453 16.18560791015625 15.00483703613281 C 14.03179931640625 16.5396728515625 12.28106689453125 18.30624389648438 10.98199462890625 20.25547790527344 C 9.226654052734375 22.88938140869141 8.273468017578125 25.88619232177734 8.148849487304688 29.1627197265625 C 8.018661499023438 32.58583831787109 8.790496826171875 36.33052825927734 10.44287109375 40.29273986816406 C 13.08372497558594 46.62516784667969 17.81153869628906 53.21940994262695 24.4949951171875 59.89228820800781 C 30.98751831054688 66.37452697753906 39.0323486328125 72.64600372314453 48.40603637695312 78.53253173828125 C 57.79328155517578 84.42757415771484 68.03506469726562 89.63603210449219 78.84687805175781 94.01319885253906 C 90.03954315185547 98.5445556640625 101.3529739379883 101.9806442260742 112.472900390625 104.2260055541992 C 121.7876892089844 106.1068572998047 130.5501098632812 107.0605316162109 138.5167541503906 107.0605316162109 C 147.1914520263672 107.0605316162109 154.6775665283203 105.9427185058594 160.7671356201172 103.7381744384766 C 163.7237091064453 102.6678161621094 166.3223724365234 101.341552734375 168.490966796875 99.79619598388672 C 170.6447601318359 98.26136016845703 172.3955230712891 96.49478912353516 173.6945648193359 94.54554748535156 C 175.4499053955078 91.91166687011719 176.4030914306641 88.91484069824219 176.5277099609375 85.63833618164062 C 176.6578979492188 82.21521759033203 175.8860626220703 78.47052764892578 174.2336883544922 74.50831604003906 C 171.5928344726562 68.17588806152344 166.8650207519531 61.58164596557617 160.1815643310547 54.90876770019531 C 153.6890411376953 48.42652893066406 145.6442108154297 42.15505218505859 136.2705383300781 36.26852416992188 C 126.8832778930664 30.37348175048828 116.6415176391602 25.16503143310547 105.8297119140625 20.78786468505859 C 94.63703918457031 16.25650787353516 83.32361602783203 12.82041168212891 72.20368194580078 10.57505035400391 C 62.88894653320312 8.694190979003906 54.12651062011719 7.740501403808594 46.15980529785156 7.740501403808594 M 46.15980529785156 6.740509033203125 C 54.00271606445312 6.740509033203125 62.81489562988281 7.6590576171875 72.401611328125 9.594841003417969 C 118.1409225463867 18.83061981201172 164.1459197998047 47.72105407714844 175.1566314697266 74.1234130859375 C 186.1673431396484 100.525764465332 158.0142517089844 114.4420013427734 112.2749710083008 105.2062225341797 C 66.53565979003906 95.97042846679688 20.5306396484375 67.08000183105469 9.519927978515625 40.67765045166016 C 0.8170013427734375 19.80908203125 16.58326721191406 6.740509033203125 46.15980529785156 6.740509033203125 Z" stroke="none" fill="#fff"/>
        </g>
        <path id="Icon_awesome-star" data-name="Icon awesome-star" d="M32.673,4.446,27.5,17.5,5.775,15.282c-3.9-.4-4.322,2.958-.711,5.677L25.156,36.1l1.521,15.834c.278,2.863,5.274,6,8.394,5.329l17.6-3.691L75.35,65.583c4.025,2.133,7.57.775,5.905-2.374L72.029,45.782l12.483-8.407c2.244-1.51-.566-5.536-4.744-6.8l-23.3-7.086L41.518,6.274C38.843,3.2,33.609,2.09,32.673,4.446Z" transform="translate(74.614 48.725) rotate(9)" fill="#fff"/>
      </g>
      <g id="Group_251" data-name="Group 251" transform="matrix(0.809, 0.588, -0.588, 0.809, 740.519, 2.52)">
        <g transform="matrix(0.81, -0.59, 0.59, 0.81, -746.52, 441.61)" filter="url(#Ellipse_14)">
          <circle id="Ellipse_14-3" data-name="Ellipse 14" cx="80.35" cy="80.35" r="80.35" transform="matrix(0.81, 0.59, -0.59, 0.81, 863.52, 81.52)" fill="#05314e"/>
        </g>
        <g id="Ellipse_15" data-name="Ellipse 15" transform="translate(19.214 19.214)" fill="#05314e" stroke="#fff" stroke-width="1">
          <circle cx="61.136" cy="61.136" r="61.136" stroke="none"/>
          <circle cx="61.136" cy="61.136" r="60.636" fill="none"/>
        </g>
        <path id="Icon_awesome-heart" data-name="Icon awesome-heart" d="M56.78,3.762c-6.73-5.736-16.74-4.7-22.918,1.67L31.443,7.926l-2.42-2.493C22.858-.942,12.836-1.973,6.106,3.762A17.635,17.635,0,0,0,4.89,29.3L28.655,53.835a3.85,3.85,0,0,0,5.564,0L57.984,29.3a17.625,17.625,0,0,0-1.2-25.534Z" transform="translate(48.908 54.149)" fill="#fff"/>
      </g>
      <g id="Group_5623" data-name="Group 5623" transform="matrix(0.809, 0.588, -0.588, 0.809, 1347.352, -4.67)">
        <g transform="matrix(0.81, -0.59, 0.59, 0.81, -1233.23, 804.12)" filter="url(#Ellipse_14-2)">
          <g id="Ellipse_14-4" data-name="Ellipse 14" transform="matrix(0.81, 0.59, -0.59, 0.81, 1470.35, 74.33)" fill="#05314e" stroke="#fff" stroke-width="1">
            <circle cx="84.595" cy="84.595" r="84.595" stroke="none"/>
            <circle cx="84.595" cy="84.595" r="84.095" fill="none"/>
          </g>
        </g>
        <g id="Ellipse_15-2" data-name="Ellipse 15" transform="translate(19.942 20.184)" fill="#05314e" stroke="#fff" stroke-width="1">
          <circle cx="64.366" cy="64.366" r="64.366" stroke="none"/>
          <circle cx="64.366" cy="64.366" r="63.866" fill="none"/>
        </g>
        <path id="Icon_awesome-thumbs-up" data-name="Icon awesome-thumbs-up" d="M43.678,23.98h8.564a2.569,2.569,0,0,1,2.569,2.569V52.242a2.569,2.569,0,0,1-2.569,2.569H43.678a2.569,2.569,0,0,1-2.569-2.569V26.549A2.569,2.569,0,0,1,43.678,23.98ZM47.96,50.53a2.569,2.569,0,1,0-2.569-2.569A2.569,2.569,0,0,0,47.96,50.53ZM13.7,8.72c0,4.541,2.78,7.088,3.562,10.122H6.375A6.4,6.4,0,0,0,0,25.061a7.751,7.751,0,0,0,2.081,5.267l.012.012a8.943,8.943,0,0,0,1,8.507,8.466,8.466,0,0,0,1.754,8A5.683,5.683,0,0,0,5.5,51.628c2.185,3.139,7.6,3.183,12.18,3.183h.3c5.169,0,9.4-1.884,12.8-3.4a16.848,16.848,0,0,1,5.637-1.732A1.285,1.285,0,0,0,37.683,48.4V25.514A1.283,1.283,0,0,0,37.3,24.6c-4.241-4.191-6.064-8.627-9.54-12.109C26.177,10.9,25.6,8.507,25.043,6.187,24.567,4.206,23.572,0,21.411,0,18.842,0,13.7.856,13.7,8.72Z" transform="translate(56.716 57.114)" fill="#fff"/>
      </g>
    </g>
    <path id="Rectangle_145" data-name="Rectangle 145" d="M94,0H1497a94,94,0,0,1,94,94V256a0,0,0,0,1,0,0H94A94,94,0,0,1,0,162V94A94,94,0,0,1,94,0Z" transform="translate(165 266)" fill="#fff"/>
  </g>
</svg>
